<svg xmlns="http://www.w3.org/2000/svg" width="586.814" height="25" viewBox="0 0 586.814 25">
  <g id="그룹_222439" data-name="그룹 222439" transform="translate(14969 16975)">
    <g id="그룹_222430" data-name="그룹 222430" transform="translate(-14969 -16975)">
      <g id="그룹_222429" data-name="그룹 222429">
        <path id="패스_247513" data-name="패스 247513" d="M2.845-.5l.778-.346A10.087,10.087,0,0,1,2.261-6.035,10.143,10.143,0,0,1,3.623-11.22l-.778-.335a10.18,10.18,0,0,0-1.6,5.52A10.19,10.19,0,0,0,2.845-.5ZM9.716-7.418A19.071,19.071,0,0,1,5.643-7.1V-9.87h3.23v-.907H4.53v4.591h.789a20.243,20.243,0,0,0,4.5-.335ZM6.691-5.235H5.567v3.23h6.568v-.907H6.691ZM11.747-8.79v-2.8H10.634v7.065h1.113V-7.871H13.13V-8.79Zm2.085,8.3A2.533,2.533,0,0,0,15.6-2.923c0-.832-.357-1.34-.961-1.34a.807.807,0,0,0-.864.8.779.779,0,0,0,.832.8.443.443,0,0,0,.119-.011,1.657,1.657,0,0,1-1.178,1.48Zm12.7-7.487C24.57-8.26,23.1-9.481,23.1-10.745v-.519H21.923v.519c0,1.286-1.448,2.485-3.435,2.766l.432.9a4.906,4.906,0,0,0,3.6-2.2,4.936,4.936,0,0,0,3.587,2.2Zm.378,1.815H18.1v.907h3.824v3.446h1.113V-5.257h3.878Zm6.5-.983a3.233,3.233,0,0,1-2.366-3.036v-.951H29.918v.951a3.416,3.416,0,0,1-2.4,3.209l.551.875A4.036,4.036,0,0,0,30.5-8.4a3.932,3.932,0,0,0,2.366,2.128ZM28.956-4.371h5.466v2.55h1.113V-5.268H28.956Zm5.466-7.217v5.855h1.113v-5.855ZM45.755-8.962v1.2H43.724v-1.2ZM42.633-6.856h-2.3V-8.444h2.3Zm1.091,0h2.031v2.5h1.113v-7.206H45.755v1.707H43.724v-1.07H42.633v1.61h-2.3v-1.61h-1.1v4.98h4.494ZM41.639-2.913v-2.15H40.516v3.057h6.579v-.907ZM53.922-10.7H51.708v-.918H50.584v.918H48.348v.821h5.574ZM49.86-8.033c0-.465.5-.745,1.275-.745s1.275.281,1.275.745-.5.724-1.275.724S49.86-7.58,49.86-8.033ZM54.192-6.2c-.789.119-1.642.184-2.485.238v-.616c1.08-.13,1.75-.67,1.75-1.458,0-.929-.918-1.5-2.323-1.5s-2.323.573-2.323,1.5c0,.8.681,1.329,1.772,1.458v.67c-.9.022-1.761.032-2.485.032l.13.886a34.925,34.925,0,0,0,6.05-.443ZM50.627-4.436H49.515v2.431h6.633v-.907h-5.52Zm5.2-3.835v-3.317H54.711V-3.95h1.113v-3.4h1.34v-.918ZM67.8-10.507H64.434V-11.6H63.321v1.091H59.907v.886h7.9ZM65.968-7.493c0,.529-.724.821-2.085.821s-2.1-.292-2.1-.821.735-.81,2.1-.81S65.968-8.023,65.968-7.493Zm-5.337,0c0,1.059,1.221,1.653,3.252,1.653s3.252-.594,3.252-1.653-1.221-1.653-3.252-1.653S60.631-8.552,60.631-7.493Zm7.681,2.236H59.464v.9h3.857v2.55h1.113V-4.36h3.878Zm7.508-.594v.778h1.912v.907h1.113v-7.422H77.733v5.736Zm-1.945-4.537c.8,0,1.35.346,1.35.9s-.551.9-1.35.9-1.361-.346-1.361-.9S73.066-10.388,73.876-10.388Zm0,2.614c1.426,0,2.409-.681,2.409-1.718s-.983-1.718-2.409-1.718-2.42.681-2.42,1.718S72.439-7.774,73.876-7.774Zm-.443,3.295h1.113v-1.88a24.361,24.361,0,0,0,2.506-.281l-.086-.8a55.452,55.452,0,0,1-6.255.292l.14.907c.778,0,1.653-.011,2.582-.054Zm-.292,1.566V-4.89H72.029v2.884h7.044v-.907ZM83-4.836A1.3,1.3,0,0,1,81.643-6.2,1.3,1.3,0,0,1,83-7.558,1.3,1.3,0,0,1,84.366-6.2,1.3,1.3,0,0,1,83-4.836Zm0-3.641A2.27,2.27,0,0,0,80.585-6.2,2.264,2.264,0,0,0,83-3.917,2.27,2.27,0,0,0,85.424-6.2,2.276,2.276,0,0,0,83-8.476Zm.54-2.949H82.432v1.35H80.109v.907h5.715v-.907H83.545Zm5.693,3.77h-1.5v-3.922H86.613v9.766h1.124V-6.726h1.5Zm8.156-1.124H91.809v-2.452H90.7v3.36h6.7Zm-5.65,3.868H90.632v2.874h6.817v-.9h-5.7ZM89.551-6.7v.9H98.41v-.9Zm18.268-2.679v1h-2.388v.864h2.388v.886h1.113v-4.948h-1.113v1.329H105.8a4.781,4.781,0,0,0,.076-.9H101.51v.9h3.133c-.151,1.361-1.35,2.431-3.662,2.928l.389.907c2.15-.486,3.587-1.48,4.192-2.971ZM103.714-2.8v-.9h5.218V-6.229H102.58v.886h5.24v.81H102.6v2.625h6.6v-.9ZM115.36-6.089a22.792,22.792,0,0,0,.27-3.814v-.648h-4.959v.9h3.868a20.337,20.337,0,0,1-.27,3.468Zm-2.182-1.664h-1.091v2.938c-.681.011-1.34.022-1.934.022l.119.918a37.638,37.638,0,0,0,5.953-.378l-.054-.81c-.951.119-1.977.184-2.992.227Zm6.071.184h-1.437v-4.008h-1.124v9.755h1.124V-6.629h1.437Zm.875-2.982v.907h3.414a6.411,6.411,0,0,1-3.9,5.186l.616.853a7.34,7.34,0,0,0,4.4-6.946Zm8.556,2.82H127.2v-3.857h-1.113v9.755H127.2V-6.8h1.48Zm4.851,2.755c-.853,0-1.437-.918-1.437-2.442s.583-2.442,1.437-2.442,1.437.918,1.437,2.442S134.374-4.976,133.531-4.976Zm0-5.888c-1.458,0-2.506,1.34-2.506,3.446s1.048,3.435,2.506,3.435,2.506-1.329,2.506-3.435S134.99-10.864,133.531-10.864Zm6.482,3.1H138.49v-3.814h-1.113v9.766h1.113V-6.845h1.523Zm2-2.863h-1.1v6.341h.832a23.3,23.3,0,0,0,4.764-.465l-.119-.929a22.594,22.594,0,0,1-4.375.443Zm5.272-.951v9.755H148.4v-9.755Zm3.943,4.494h3.338v-3.63H150.1v.907h3.36v1.826h-3.338v3.857h.8a24.484,24.484,0,0,0,4.613-.335l-.119-.907a23.17,23.17,0,0,1-4.192.324Zm7.584-.7h-1.5V-11.6h-1.124v9.788h1.124V-6.856h1.5Zm4.181.8h-2.344v-2.9h2.344ZM166.1-9.038V-7.85h-2.031V-9.038Zm-2.031,2.085H166.1v2.5h1.113v-7.119H166.1v1.631h-2.031v-.821h-4.516V-6.1h4.516Zm-2.085,4.04V-5.106h-1.124v3.1h6.579v-.907Zm12.035-6.774h2.171V-10.6h-5.466v.918H172.9v.929a4.771,4.771,0,0,1-2.517,4.192l.637.886a5.032,5.032,0,0,0,2.452-3.068,4.781,4.781,0,0,0,2.463,2.82l.616-.875a4.4,4.4,0,0,1-2.528-3.954Zm3.306-1.891v9.755h1.124v-9.755Zm6.892,1.253c1.394,0,2.312.475,2.312,1.264s-.918,1.275-2.312,1.275S181.9-8.26,181.9-9.06,182.815-10.324,184.22-10.324Zm0,3.435c2.053,0,3.457-.843,3.457-2.171s-1.4-2.161-3.457-2.161-3.468.843-3.468,2.161S182.156-6.888,184.22-6.888Zm4.44.832h-8.848v.918h3.835v3.317h1.113V-5.138h3.9Zm.918-4.289v.907h2.733a5.715,5.715,0,0,1-3.144,4.786l.648.789a6.856,6.856,0,0,0,3.6-6.482Zm6.882-1.232v3.814h-1.113v-3.554H194.3v9.042h1.048V-6.856h1.113v5.034h1.059v-9.755Zm7.119,7.692V-5.549h3.047v-.9h-5.845V-7.806h5.628V-10.9h-6.741v.9h5.639v1.307H199.69v3.144h2.776v1.664H198.62v.918h8.837v-.918Zm9.928-5.8h2.171V-10.6h-5.466v.918h2.171v.929a4.771,4.771,0,0,1-2.517,4.192l.637.886a5.032,5.032,0,0,0,2.452-3.068,4.781,4.781,0,0,0,2.463,2.82l.616-.875a4.4,4.4,0,0,1-2.528-3.954Zm3.306-1.891v9.755h1.124v-9.755Zm6.892,1.253c1.394,0,2.312.475,2.312,1.264s-.918,1.275-2.312,1.275-2.323-.475-2.323-1.275S222.3-10.324,223.705-10.324Zm0,3.435c2.053,0,3.457-.843,3.457-2.171s-1.4-2.161-3.457-2.161-3.468.843-3.468,2.161S221.642-6.888,223.705-6.888Zm4.44.832H219.3v.918h3.835v3.317h1.113V-5.138h3.9Zm7.3-3.651a21,21,0,0,1-.378,4.462l1.124.119a22.338,22.338,0,0,0,.378-4.581v-.961h-6.946v.907h5.823Zm-2.333,5.693V-7.45h-1.124v3.435h-3.284V-3.1h8.815v-.918Zm14.941-7.573h-1.124v5.045h1.124Zm-5.682,1.512h1.34v2.3c-.443.022-.907.032-1.34.043Zm3.716,2.107c-.421.054-.853.086-1.3.119v-2.225h.864v-.886h-5.24v.886h.886V-7.72c-.4.011-.789.011-1.145.011l.119.907a40.2,40.2,0,0,0,5.866-.378Zm-3.371,5.186v-.853h5.337V-6.1H241.6v.864h5.358v.789h-5.348v2.539h6.774v-.875Zm7.227-7.767v.907h3.479c-.194,2.247-1.4,3.965-3.965,5.2l.594.886a7.21,7.21,0,0,0,4.516-6.99Zm6.385-1.026v9.755h1.113v-9.755Zm10.987,3.749h-4.462V-9.07h4.462Zm1.113-3.371h-1.113v1.232h-4.462V-11.2h-1.113v4.267h6.687Zm1.091,5.326h-8.848v.9h3.835v3.165h1.113V-4.976h3.9ZM271.628-7.1h3.014V-7.99h-3.014V-9.816h3.414v-.918h-4.527V-4.09h.767a23.554,23.554,0,0,0,4.386-.292l-.1-.9A23.166,23.166,0,0,1,271.628-5Zm5.434-4.494v3.587h-1.869v.918h1.869v5.283h1.124V-11.6Zm5.812,1.847H286.3v-.907h-4.537v6.45h.8a24.077,24.077,0,0,0,4.559-.324L287-5.451a23.552,23.552,0,0,1-4.127.313Zm7.573,1.923h-1.523v-3.76h-1.113v9.777h1.113v-5.1h1.523Zm3.922-2.938h-1.113v1.6a4.907,4.907,0,0,1-2.571,4.451l.659.929a5.07,5.07,0,0,0,2.485-3.144A4.87,4.87,0,0,0,296.249-4l.648-.886a4.725,4.725,0,0,1-2.528-4.278Zm3.306-.821V-1.8H298.8v-9.788Zm12.424.022h-1.113v7.1H310.1Zm-2.02,4.915a3.181,3.181,0,0,1-2.388-2.917v-.357h2.085v-.9h-5.337v.9h2.117v.357a3.327,3.327,0,0,1-2.42,3.1l.583.864a3.926,3.926,0,0,0,2.42-2.258,3.857,3.857,0,0,0,2.377,2.085Zm-3.23,3.738v-2.2h-1.124v3.111h6.655v-.907ZM317.639-8.12h1.016v2.69h1.059v-6.158h-1.059v2.55h-1.016v-2.355H316.6v5.628h1.037Zm-1.372-2.366h-1.88v-1H313.3v1h-1.891v.875h4.861ZM312.756-7.5c0-.529.432-.875,1.091-.875s1.1.346,1.1.875-.443.875-1.1.875S312.756-6.975,312.756-7.5Zm3.187,0c0-1-.864-1.685-2.1-1.685s-2.085.681-2.085,1.685.864,1.685,2.085,1.685S315.943-6.488,315.943-7.5Zm.529,4.84c-1.394,0-2.193-.313-2.193-.9s.8-.886,2.193-.886,2.182.3,2.182.886S317.877-2.664,316.472-2.664Zm0-2.625c-2.063,0-3.306.627-3.306,1.729s1.242,1.739,3.306,1.739,3.295-.637,3.295-1.739S318.525-5.289,316.472-5.289ZM321.582-.5a10.107,10.107,0,0,0,1.61-5.531,10.1,10.1,0,0,0-1.61-5.52l-.778.335a10.143,10.143,0,0,1,1.361,5.186A10.088,10.088,0,0,1,320.8-.849Z" transform="translate(263.622 18.858)" fill="#6c6c6c"/>
        <g id="그룹_222427" data-name="그룹 222427">
          <path id="사각형_60604" data-name="사각형 60604" d="M0,0H248.5A12.5,12.5,0,0,1,261,12.5v0A12.5,12.5,0,0,1,248.5,25H0a0,0,0,0,1,0,0V0A0,0,0,0,1,0,0Z" fill="#d7eb95"/>
          <path id="패스_247512" data-name="패스 247512" d="M10.276-13.243H9.066v8.322h1.21ZM5.733-10.058v1.025H6.98v3.864h1.2v-7.852H6.98v2.963Zm-2.84-1.124H4.054v3.4c-.4.025-.778.037-1.161.037ZM6.276-7.959c-.333.049-.691.074-1.074.1v-3.321h.864v-1.025H.918v1.025h.827v3.445H.72L.868-6.687A33.407,33.407,0,0,0,6.35-7.033Zm-2.05,4.63V-5.86H2.955v3.568h7.618V-3.329ZM16.449-12.6c-2.333,0-4.1,1.259-4.1,3.148S14.116-6.3,16.449-6.3s4.1-1.247,4.1-3.148S18.771-12.6,16.449-12.6Zm0,1.049c1.642,0,2.864.815,2.864,2.1s-1.222,2.1-2.864,2.1-2.864-.815-2.864-2.1S14.8-11.551,16.449-11.551ZM11.412-4.539v1.049h10.1V-4.539Zm16.285.1v-1.9h3.482V-7.366H24.5V-8.922h6.433v-3.531h-7.7v1.025h6.445v1.494h-6.42v3.593h3.173v1.9h-4.4V-3.39h10.1V-4.44Zm16.2-8.8H42.612v5.766H43.9ZM37.4-11.514h1.531v2.63c-.506.025-1.037.037-1.531.049Zm4.247,2.408c-.482.062-.975.1-1.482.136v-2.543h.988v-1.012H35.167v1.012h1.012v2.692c-.457.012-.9.012-1.309.012l.136,1.037a45.947,45.947,0,0,0,6.7-.432ZM37.8-3.181v-.975h6.1V-6.971H36.513v.988h6.124v.9H36.525v2.9h7.741v-1Zm8.136-8.877v1.037h3.976c-.222,2.568-1.605,4.531-4.531,5.939l.679,1.012c3.827-1.852,5.161-4.667,5.161-7.988Zm7.3-1.173V-2.082H54.5V-13.231ZM81.861-9.119c-2.247-.321-3.926-1.716-3.926-3.161v-.593H76.589v.593c0,1.469-1.654,2.84-3.926,3.161l.494,1.025a5.606,5.606,0,0,0,4.111-2.519,5.641,5.641,0,0,0,4.1,2.519Zm.432,2.074H72.219v1.037h4.371v3.939h1.272V-6.008h4.432ZM89.6-8.169a3.7,3.7,0,0,1-2.7-3.469v-1.086H85.6v1.086a3.9,3.9,0,0,1-2.741,3.667l.63,1A4.612,4.612,0,0,0,86.269-9.6a4.494,4.494,0,0,0,2.7,2.432ZM84.5-5h6.247v2.914h1.272V-6.02H84.5Zm6.247-8.247v6.692h1.272v-6.692Zm10.667,3v1.37H99.1v-1.37ZM97.85-7.835H95.22V-9.65h2.63Zm1.247,0h2.321v2.852h1.272v-8.235h-1.272v1.951H99.1V-12.49H97.85v1.84H95.22v-1.84H93.961V-6.8H99.1ZM96.714-3.329V-5.786H95.43v3.494h7.519V-3.329Zm13.915-8.9H108.1V-13.28h-1.284v1.049h-2.556v.938h6.371Zm-4.642,3.05c0-.531.568-.852,1.457-.852s1.457.321,1.457.852-.568.827-1.457.827S105.986-8.662,105.986-9.181Zm4.951,2.1c-.9.136-1.877.21-2.84.272v-.7c1.235-.148,2-.765,2-1.667,0-1.062-1.049-1.716-2.654-1.716s-2.654.654-2.654,1.716c0,.914.778,1.519,2.025,1.667v.765c-1.025.025-2.012.037-2.84.037l.148,1.012a39.914,39.914,0,0,0,6.914-.506ZM106.863-5.07h-1.272v2.778h7.581V-3.329h-6.309ZM112.8-9.453v-3.79H111.53v8.729H112.8V-8.4h1.531V-9.453Zm8.322,3.63h-2.716V-8.551h2.716Zm3.58-7.433v4.062H122.37v-3.161h-1.247v2.8h-2.716v-2.815h-1.259v7.581h5.223V-8.169H124.7v6.112h1.284V-13.243Zm11.581,4.272h-6.4v-.975h6.05v-.951h-6.05v-.963h6.321v-.975h-7.593V-8h7.667Zm-6.42,3.58h-1.272v3.111h7.791V-3.329h-6.519Zm-2.531-1.729v1.025H137.42V-7.131Zm21.643-2.482h-6.433v-3.1h-1.272v4.124h7.7ZM150.1-7.094H139.989v1.049h4.371v3.976h1.284V-6.045H150.1Zm8.161-2.815h-6.42V-6.3h7.926V-7.341h-6.679V-8.9h6.433v-3.531h-7.7v1.037h6.445Zm-7.643,5.445v1.049h10.1V-4.465Zm11.248-7.593v1.037h3.976c-.222,2.568-1.605,4.531-4.531,5.939l.679,1.012c3.827-1.852,5.161-4.667,5.161-7.988Zm7.3-1.173V-2.082h1.272V-13.231Zm26.9,0v5.988h1.272v-5.988Zm-6.013,6.507v4.506h7.284V-6.724h-1.259v1.235h-4.766V-6.724ZM191.313-4.5h4.766v1.259h-4.766Zm.012-8.223a2.694,2.694,0,0,0-2.963,2.593,2.694,2.694,0,0,0,2.963,2.593,2.683,2.683,0,0,0,2.951-2.593A2.683,2.683,0,0,0,191.325-12.724Zm0,1.049a1.561,1.561,0,0,1,1.716,1.543,1.554,1.554,0,0,1-1.716,1.543,1.548,1.548,0,0,1-1.716-1.543A1.555,1.555,0,0,1,191.325-11.675ZM204.561-8.07a22.165,22.165,0,0,1-4.1.259V-9.255h3.568v-3.334h-4.84v1.025h3.581v1.333h-3.556v3.457h.815a25.349,25.349,0,0,0,4.667-.272Zm-4.1,3.3h6.272v2.716h1.272V-5.81h-7.544Zm6.272-8.457v1.605h-2V-10.6h2v1.309h-2v1.025h2v1.9h1.272v-6.865Zm7.05,7.408h-2.716V-8.551h2.716Zm3.581-7.433v4.062h-2.333v-3.161h-1.247v2.8h-2.716v-2.815h-1.259v7.581h5.223V-8.169h2.333v6.112h1.284V-13.243Zm11.581,4.272h-6.4v-.975h6.05v-.951h-6.05v-.963h6.321v-.975h-7.593V-8h7.667Zm-6.42,3.58h-1.272v3.111h7.791V-3.329h-6.519Zm-2.531-1.729v1.025h10.087V-7.131Z" transform="translate(15.269 20.009)" fill="#6a8416"/>
          <g id="그룹_222431" data-name="그룹 222431" transform="translate(73.377 7.69)">
            <path id="패스_278" data-name="패스 278" d="M.466,5.967A.466.466,0,0,1,0,5.5V.466a.466.466,0,0,1,.932,0V5.033H5.5a.467.467,0,0,1,0,.933H.466Z" transform="translate(4.655 8.874) rotate(-135)" fill="#fff"/>
            <path id="패스_278_-_윤곽선" data-name="패스 278 - 윤곽선" d="M5.809,6.584H.774A.776.776,0,0,1,0,5.808V.775a.775.775,0,0,1,1.549,0V5.033h4.26a.775.775,0,0,1,0,1.551ZM.774.617A.157.157,0,0,0,.617.775V5.808a.158.158,0,0,0,.157.159H5.809a.158.158,0,0,0,0-.316H.932V.775A.158.158,0,0,0,.774.617Z" transform="translate(4.655 9.311) rotate(-135)" fill="#fff"/>
          </g>
          <g id="그룹_222432" data-name="그룹 222432" transform="translate(189.126 7.69)">
            <path id="패스_278-2" data-name="패스 278" d="M.466,5.967A.466.466,0,0,1,0,5.5V.466a.466.466,0,0,1,.932,0V5.033H5.5a.467.467,0,0,1,0,.933H.466Z" transform="translate(4.655 8.874) rotate(-135)" fill="#fff"/>
            <path id="패스_278_-_윤곽선-2" data-name="패스 278 - 윤곽선" d="M5.809,6.584H.774A.776.776,0,0,1,0,5.808V.775a.775.775,0,0,1,1.549,0V5.033h4.26a.775.775,0,0,1,0,1.551ZM.774.617A.157.157,0,0,0,.617.775V5.808a.158.158,0,0,0,.157.159H5.809a.158.158,0,0,0,0-.316H.932V.775A.158.158,0,0,0,.774.617Z" transform="translate(4.655 9.311) rotate(-135)" fill="#fff"/>
          </g>
        </g>
      </g>
    </g>
  </g>
</svg>
