<?xml version="1.0" encoding="utf-8"?>
<!-- Generator: Adobe Illustrator 25.2.3, SVG Export Plug-In . SVG Version: 6.00 Build 0)  -->
<svg version="1.1" id="레이어_1" xmlns="http://www.w3.org/2000/svg" xmlns:xlink="http://www.w3.org/1999/xlink" x="0px"
	 y="0px" viewBox="0 0 24 24" style="enable-background:new 0 0 24 24;" xml:space="preserve">
<style type="text/css">
	.st0{fill:none;}
	.st1{fill:#FFFFFF;}
</style>
<g>
	<rect class="st0" width="24" height="24"/>
	<path class="st1" d="M22,18h-2v1h3v1h-4v-2c0-0.5,0.5-1,1-1h2v-1h-3v-1h3c0.5,0,1,0.4,1,1v1C23,17.5,22.5,18,22,18z M5.9,18h2.7
		l3.4-5.4h0.1l3.4,5.4h2.7l-4.6-7.3L17.8,4h-2.7l-3.1,5h-0.1L8.9,4H6.2l4.3,6.7L5.9,18z"/>
</g>
</svg>
