<?xml version="1.0" encoding="utf-8"?>
<!-- Generator: Adobe Illustrator 25.2.3, SVG Export Plug-In . SVG Version: 6.00 Build 0)  -->
<svg version="1.1" id="레이어_1" xmlns="http://www.w3.org/2000/svg" xmlns:xlink="http://www.w3.org/1999/xlink" x="0px"
	 y="0px" viewBox="0 0 24 24" style="enable-background:new 0 0 24 24;" xml:space="preserve">
<style type="text/css">
	.st0{fill:none;}
	.st1{fill:#FFFFFF;}
</style>
<g>
	<rect class="st0" width="24" height="24"/>
	<path class="st1" d="M22,7h-2v1h3v1h-4V7c0-0.6,0.5-1,1-1h2V5h-3V4h3c0.5,0,1,0.4,1,1v1C23,6.6,22.5,7,22,7z M5.9,20h2.7l3.4-5.4
		h0.1l3.4,5.4h2.7l-4.6-7.3L17.8,6h-2.7l-3.1,5h-0.1L8.9,6H6.2l4.3,6.7L5.9,20z"/>
</g>
</svg>
