<svg width="17" height="20" viewBox="0 0 17 20" fill="none" xmlns="http://www.w3.org/2000/svg">
<path d="M0.531331 0C0.219736 0.0390547 -0.00502249 0.222442 8.5322e-05 0.434695V19.5613C-0.00246858 19.7175 0.12268 19.8618 0.324452 19.9399C0.526224 20.0197 0.776522 20.0197 0.980847 19.9416L8.5 16L16.0192 19.9416C16.2235 20.0197 16.4738 20.0197 16.6756 19.9399C16.8774 19.8618 17.0025 19.7175 17 19.5613V0.434695C17 0.195273 16.7062 0 16.3461 0H0.653927C0.633494 0 0.613062 0 0.592629 0C0.572197 0 0.551764 0 0.531331 0ZM1.30777 0.86939H15.6923V18.8006L8.925 15.2C8.72323 15.1219 8.27677 15.1219 8.075 15.2L1.30777 18.8006V0.86939Z" fill="white"/>
</svg>
