<svg width="14" height="14" viewBox="0 0 14 14" fill="none" xmlns="http://www.w3.org/2000/svg">
<circle cx="7" cy="7" r="7" fill="black"/>
<path d="M6.13335 10.1937H7.4521V11.375H6.13335V10.1937ZM7.01252 3.5C9.3643 3.58663 10.3885 5.71288 8.99066 7.30756C8.6258 7.70131 8.03675 7.96119 7.74663 8.29194C7.4521 8.61875 7.4521 9.0125 7.4521 9.40625H6.13335C6.13335 8.74869 6.13335 8.1935 6.42787 7.79975C6.71799 7.406 7.30704 7.17369 7.6719 6.91381C8.7357 6.03181 8.47194 4.78362 7.01252 4.68125C6.66276 4.68125 6.32733 4.8057 6.08001 5.02723C5.8327 5.24876 5.69376 5.54921 5.69376 5.8625H4.375C4.375 5.23593 4.65288 4.63501 5.14751 4.19196C5.64214 3.74891 6.313 3.5 7.01252 3.5Z" fill="white"/>
</svg>
