<svg width="20" height="20" viewBox="0 0 20 20" fill="none" xmlns="http://www.w3.org/2000/svg">
<path d="M11.2927 1.96001C11.7345 1.5112 12.2607 1.15428 12.841 0.909833C13.4214 0.665385 14.0444 0.538245 14.6741 0.535743C15.3038 0.533242 15.9278 0.655429 16.5101 0.895259C17.0923 1.13509 17.6213 1.48782 18.0666 1.9331C18.5119 2.37838 18.8646 2.90741 19.1045 3.48968C19.3443 4.07195 19.4665 4.69594 19.464 5.32566C19.4615 5.95538 19.3343 6.57837 19.0899 7.15872C18.8455 7.73906 18.4885 8.26527 18.0397 8.70701L15.0097 11.737L13.5947 10.324L16.6247 7.29301C17.1446 6.77345 17.4367 6.06867 17.4369 5.33371C17.4371 4.59876 17.1453 3.89383 16.6257 3.37401C16.1062 2.85418 15.4014 2.56204 14.6664 2.56185C13.9315 2.56167 13.2266 2.85345 12.7067 3.37301L9.67573 6.40401L8.26173 4.99001L11.2927 1.96001ZM13.4127 8.00001L7.99773 13.414L6.58373 12L11.9977 6.58601L13.4127 8.00001ZM6.40273 9.67601L3.37273 12.707C2.8529 13.2268 2.56087 13.9319 2.56087 14.667C2.56087 15.4021 2.8529 16.1072 3.37273 16.627C3.89255 17.1468 4.59758 17.4389 5.33273 17.4389C6.06787 17.4389 6.7729 17.1468 7.29273 16.627L10.3227 13.596L11.7367 15.01L8.70673 18.04C7.81202 18.9348 6.59848 19.4376 5.33308 19.4377C4.06768 19.4378 2.85407 18.9352 1.95923 18.0405C1.06439 17.1458 0.561617 15.9323 0.561523 14.6669C0.56143 13.4015 1.06402 12.1878 1.95873 11.293L4.98873 8.26301L6.40273 9.67601Z" fill="#545454"/>
</svg>
