<svg width="25" height="26" viewBox="0 0 25 26" fill="none" xmlns="http://www.w3.org/2000/svg">
<path d="M6.25033 23.417C5.67741 23.417 5.18713 23.2132 4.77949 22.8055C4.37185 22.3979 4.16769 21.9073 4.16699 21.3337V10.917C4.16699 10.3441 4.37116 9.8538 4.77949 9.44616C5.18783 9.03852 5.6781 8.83435 6.25033 8.83366H7.29199V6.75033C7.29199 5.30935 7.79998 4.08123 8.81595 3.06595C9.83192 2.05067 11.06 1.54269 12.5003 1.54199C13.9413 1.54199 15.1698 2.04998 16.1857 3.06595C17.2017 4.08192 17.7094 5.31005 17.7087 6.75033V8.83366H18.7503C19.3232 8.83366 19.8139 9.03783 20.2222 9.44616C20.6305 9.85449 20.8344 10.3448 20.8337 10.917V21.3337C20.8337 21.9066 20.6298 22.3972 20.2222 22.8055C19.8146 23.2139 19.3239 23.4177 18.7503 23.417H6.25033ZM12.5003 18.2087C13.0732 18.2087 13.5639 18.0048 13.9722 17.5972C14.3805 17.1896 14.5844 16.6989 14.5837 16.1253C14.5837 15.5524 14.3798 15.0621 13.9722 14.6545C13.5646 14.2469 13.0739 14.0427 12.5003 14.042C11.9274 14.042 11.4371 14.2462 11.0295 14.6545C10.6219 15.0628 10.4177 15.5531 10.417 16.1253C10.417 16.6982 10.6212 17.1889 11.0295 17.5972C11.4378 18.0055 11.9281 18.2094 12.5003 18.2087ZM9.37533 8.83366H15.6253V6.75033C15.6253 5.88227 15.3215 5.14442 14.7139 4.53678C14.1062 3.92914 13.3684 3.62533 12.5003 3.62533C11.6323 3.62533 10.8944 3.92914 10.2868 4.53678C9.67914 5.14442 9.37533 5.88227 9.37533 6.75033V8.83366Z" fill="black"/>
</svg>
