<svg width="23" height="23" viewBox="0 0 23 23" fill="none" xmlns="http://www.w3.org/2000/svg">
<path d="M17.5238 0C14.501 0 12.0476 2.45333 12.0476 5.47619V7.66667H2.19048C0.985714 7.66667 0 8.64143 0 9.85714V20.8095C0 22.0252 0.985714 23 2.19048 23H15.3333C16.549 23 17.5238 22.0252 17.5238 20.8095V9.85714C17.5238 8.65238 16.549 7.66667 15.3333 7.66667H14.2381V5.47619C14.2381 3.6581 15.7057 2.19048 17.5238 2.19048C19.3419 2.19048 20.8095 3.6581 20.8095 5.47619V7.66667H23V5.47619C23 2.45333 20.5467 0 17.5238 0ZM8.7619 13.1429C9.96667 13.1429 10.9524 14.1176 10.9524 15.3333C10.9524 16.549 9.97762 17.5238 8.7619 17.5238C7.55714 17.5238 6.57143 16.549 6.57143 15.3333C6.57143 14.1286 7.55714 13.1429 8.7619 13.1429Z" fill="black"/>
</svg>
