<svg width="30" height="30" viewBox="0 0 30 30" fill="none" xmlns="http://www.w3.org/2000/svg">
<path d="M14.7413 28.4869C7.16521 28.4869 1 22.3217 1 14.7413C1 7.16093 7.16521 1 14.7413 1C20.013 1 24.8827 4.07833 27.153 8.83691C27.5078 9.58512 27.1914 10.4744 26.4475 10.8335C25.6993 11.1927 24.81 10.872 24.4509 10.1281C22.6766 6.40418 18.8629 3.99709 14.7413 3.99709C8.81553 3.99709 3.99282 8.81981 3.99282 14.7456C3.99282 20.6714 8.81553 25.4941 14.7413 25.4941C18.6491 25.4941 22.2533 23.3692 24.1473 19.9488C24.5492 19.2263 25.4599 18.9655 26.1824 19.3674C26.905 19.7693 27.1658 20.6799 26.7639 21.4025C24.3397 25.772 19.7308 28.4869 14.7413 28.4869Z" fill="black"/>
<path d="M27.5038 12.0309H22.1595C21.3343 12.0309 20.6631 11.3597 20.6631 10.5345C20.6631 9.70933 21.3343 9.03808 22.1595 9.03808H26.0074V5.83577C26.0074 5.0106 26.6787 4.33936 27.5038 4.33936C28.329 4.33936 29.0002 5.0106 29.0002 5.83577V10.5345C29.0002 11.3597 28.329 12.0309 27.5038 12.0309Z" fill="black"/>
</svg>
