<svg width="19" height="19" viewBox="0 0 19 19" fill="none" xmlns="http://www.w3.org/2000/svg">
<path d="M0.822998 3.10307C0.822998 2.53753 1.04766 1.99515 1.44755 1.59526C1.84745 1.19536 2.38983 0.970703 2.95536 0.970703H15.7496C16.3151 0.970703 16.8575 1.19536 17.2574 1.59526C17.6573 1.99515 17.8819 2.53753 17.8819 3.10307V5.23543C17.8819 5.80097 17.6573 6.34335 17.2574 6.74324C16.8575 7.14314 16.3151 7.3678 15.7496 7.3678H2.95536C2.38983 7.3678 1.84745 7.14314 1.44755 6.74324C1.04766 6.34335 0.822998 5.80097 0.822998 5.23543V3.10307ZM0.822998 13.7649C0.822998 13.1994 1.04766 12.657 1.44755 12.2571C1.84745 11.8572 2.38983 11.6325 2.95536 11.6325H15.7496C16.3151 11.6325 16.8575 11.8572 17.2574 12.2571C17.6573 12.657 17.8819 13.1994 17.8819 13.7649V15.8973C17.8819 16.4628 17.6573 17.0052 17.2574 17.4051C16.8575 17.805 16.3151 18.0296 15.7496 18.0296H2.95536C2.38983 18.0296 1.84745 17.805 1.44755 17.4051C1.04766 17.0052 0.822998 16.4628 0.822998 15.8973V13.7649Z" stroke="#888888" stroke-linecap="round" stroke-linejoin="round"/>
</svg>
