<svg width="19" height="19" viewBox="0 0 19 19" fill="none" xmlns="http://www.w3.org/2000/svg">
<path d="M2.0364 0.970703H6.30113C6.5839 0.970703 6.85509 1.08303 7.05503 1.28298C7.25498 1.48293 7.36731 1.75412 7.36731 2.03689V8.43398C7.36731 8.71675 7.25498 8.98794 7.05503 9.18789C6.85509 9.38784 6.5839 9.50017 6.30113 9.50017H2.0364C1.75363 9.50017 1.48244 9.38784 1.28249 9.18789C1.08254 8.98794 0.970215 8.71675 0.970215 8.43398V2.03689C0.970215 1.75412 1.08254 1.48293 1.28249 1.28298C1.48244 1.08303 1.75363 0.970703 2.0364 0.970703ZM2.0364 13.7649H6.30113C6.5839 13.7649 6.85509 13.8772 7.05503 14.0772C7.25498 14.2771 7.36731 14.5483 7.36731 14.8311V16.9634C7.36731 17.2462 7.25498 17.5174 7.05503 17.7174C6.85509 17.9173 6.5839 18.0296 6.30113 18.0296H2.0364C1.75363 18.0296 1.48244 17.9173 1.28249 17.7174C1.08254 17.5174 0.970215 17.2462 0.970215 16.9634V14.8311C0.970215 14.5483 1.08254 14.2771 1.28249 14.0772C1.48244 13.8772 1.75363 13.7649 2.0364 13.7649ZM12.6982 9.50017H16.963C17.2457 9.50017 17.5169 9.6125 17.7169 9.81244C17.9168 10.0124 18.0291 10.2836 18.0291 10.5663V16.9634C18.0291 17.2462 17.9168 17.5174 17.7169 17.7174C17.5169 17.9173 17.2457 18.0296 16.963 18.0296H12.6982C12.4155 18.0296 12.1443 17.9173 11.9443 17.7174C11.7444 17.5174 11.632 17.2462 11.632 16.9634V10.5663C11.632 10.2836 11.7444 10.0124 11.9443 9.81244C12.1443 9.6125 12.4155 9.50017 12.6982 9.50017ZM12.6982 0.970703H16.963C17.2457 0.970703 17.5169 1.08303 17.7169 1.28298C17.9168 1.48293 18.0291 1.75412 18.0291 2.03689V4.16925C18.0291 4.45202 17.9168 4.72321 17.7169 4.92316C17.5169 5.1231 17.2457 5.23543 16.963 5.23543H12.6982C12.4155 5.23543 12.1443 5.1231 11.9443 4.92316C11.7444 4.72321 11.632 4.45202 11.632 4.16925V2.03689C11.632 1.75412 11.7444 1.48293 11.9443 1.28298C12.1443 1.08303 12.4155 0.970703 12.6982 0.970703Z" stroke="#888888" stroke-linecap="round" stroke-linejoin="round"/>
</svg>
