<svg width="19" height="20" viewBox="0 0 19 20" fill="none" xmlns="http://www.w3.org/2000/svg">
<path d="M1.16284 2.53507C1.16284 2.24942 1.27632 1.97546 1.47831 1.77347C1.68029 1.57148 1.95425 1.45801 2.2399 1.45801H6.54815C6.83381 1.45801 7.10776 1.57148 7.30975 1.77347C7.51174 1.97546 7.62522 2.24942 7.62522 2.53507V6.84332C7.62522 7.12897 7.51174 7.40293 7.30975 7.60492C7.10776 7.80691 6.83381 7.92038 6.54815 7.92038H2.2399C1.95425 7.92038 1.68029 7.80691 1.47831 7.60492C1.27632 7.40293 1.16284 7.12897 1.16284 6.84332V2.53507ZM11.9335 2.53507C11.9335 2.24942 12.0469 1.97546 12.2489 1.77347C12.4509 1.57148 12.7249 1.45801 13.0105 1.45801H17.3188C17.6044 1.45801 17.8784 1.57148 18.0804 1.77347C18.2824 1.97546 18.3958 2.24942 18.3958 2.53507V6.84332C18.3958 7.12897 18.2824 7.40293 18.0804 7.60492C17.8784 7.80691 17.6044 7.92038 17.3188 7.92038H13.0105C12.7249 7.92038 12.4509 7.80691 12.2489 7.60492C12.0469 7.40293 11.9335 7.12897 11.9335 6.84332V2.53507ZM1.16284 13.3057C1.16284 13.02 1.27632 12.7461 1.47831 12.5441C1.68029 12.3421 1.95425 12.2286 2.2399 12.2286H6.54815C6.83381 12.2286 7.10776 12.3421 7.30975 12.5441C7.51174 12.7461 7.62522 13.02 7.62522 13.3057V17.6139C7.62522 17.8996 7.51174 18.1736 7.30975 18.3755C7.10776 18.5775 6.83381 18.691 6.54815 18.691H2.2399C1.95425 18.691 1.68029 18.5775 1.47831 18.3755C1.27632 18.1736 1.16284 17.8996 1.16284 17.6139V13.3057ZM11.9335 13.3057C11.9335 13.02 12.0469 12.7461 12.2489 12.5441C12.4509 12.3421 12.7249 12.2286 13.0105 12.2286H17.3188C17.6044 12.2286 17.8784 12.3421 18.0804 12.5441C18.2824 12.7461 18.3958 13.02 18.3958 13.3057V17.6139C18.3958 17.8996 18.2824 18.1736 18.0804 18.3755C17.8784 18.5775 17.6044 18.691 17.3188 18.691H13.0105C12.7249 18.691 12.4509 18.5775 12.2489 18.3755C12.0469 18.1736 11.9335 17.8996 11.9335 17.6139V13.3057Z" stroke="#888888" stroke-linecap="round" stroke-linejoin="round"/>
</svg>
