<svg width="40" height="40" viewBox="0 0 40 40" fill="none" xmlns="http://www.w3.org/2000/svg">
<mask id="path-1-inside-1_657_17400" fill="white">
<rect width="40" height="40" rx="3"/>
</mask>
<rect width="40" height="40" rx="3" stroke="#11C218" stroke-width="10" mask="url(#path-1-inside-1_657_17400)"/>
<rect x="13.7822" y="2.5" width="23.7179" height="23.7179" fill="white" stroke="white" stroke-width="5"/>
<path d="M39.9489 2.05124C39.9489 0.946671 39.0535 0.0512404 37.9489 0.0512404L19.9489 0.0512404C18.8443 0.0512404 17.9489 0.946671 17.9489 2.05124C17.9489 3.15581 18.8443 4.05124 19.9489 4.05124H35.9489V20.0512C35.9489 21.1558 36.8443 22.0512 37.9489 22.0512C39.0535 22.0512 39.9489 21.1558 39.9489 20.0512L39.9489 2.05124ZM14.7477 28.0808L39.3631 3.46545L36.5347 0.637027L11.9193 25.2524L14.7477 28.0808Z" fill="#11C218"/>
</svg>
