<?xml version="1.0" encoding="utf-8"?>
<!-- Generator: Adobe Illustrator 15.1.0, SVG Export Plug-In . SVG Version: 6.00 Build 0)  -->
<!DOCTYPE svg PUBLIC "-//W3C//DTD SVG 1.1//EN" "http://www.w3.org/Graphics/SVG/1.1/DTD/svg11.dtd">
<svg version="1.1" id="Layer_1" xmlns="http://www.w3.org/2000/svg" xmlns:xlink="http://www.w3.org/1999/xlink" x="0px" y="0px"
	 width="512px" height="512px" viewBox="0 0 512 512" enable-background="new 0 0 512 512" xml:space="preserve">
<path d="M256,0C114.609,0,0,114.609,0,256c0,141.393,114.607,256,256,256c141.391,0,256-114.607,256-256
	C512,114.609,397.391,0,256,0z M256,472c-119.297,0-216-96.701-216-216c0-119.297,96.703-216,216-216s216,96.703,216,216
	C472,375.299,375.297,472,256,472z"/>
<g enable-background="new    ">
	<path d="M152.2,379.988l0.3-11.4l86.101-100.501L152.2,167.586v-22.5h193.501l12.301,68.7h-9.601c-7.2-22.5-28.2-56.7-52.2-56.7
		H193.3l79.801,93.601L185.5,349.687h126.301c20.701,0,29.701-17.4,37.201-41.7h9.3l-15.001,72.001H152.2z"/>
</g>
</svg>
